<svg width="128" height="128" viewBox="0 0 128 128" fill="none" xmlns="http://www.w3.org/2000/svg">
<g clip-path="url(#clip0_66_37)">
<path d="M87.3489 24.8404L29.0753 34.07C28.2571 34.1996 27.6988 34.968 27.8284 35.7862L38.9352 105.912C39.0648 106.73 39.8332 107.289 40.6514 107.159L98.925 97.9293C99.7433 97.7997 100.302 97.0314 100.172 96.2132L89.0651 26.0873C88.9355 25.2691 88.1671 24.7108 87.3489 24.8404Z" fill="url(#paint0_linear_66_37)"/>
<path d="M87.3489 24.8404L29.0753 34.07C28.2571 34.1996 27.6988 34.968 27.8284 35.7862L38.9352 105.912C39.0648 106.73 39.8332 107.289 40.6514 107.159L98.925 97.9293C99.7433 97.7997 100.302 97.0314 100.172 96.2132L89.0651 26.0873C88.9355 25.2691 88.1671 24.7108 87.3489 24.8404Z" stroke="#BAA890" stroke-width="0.5"/>
<path opacity="0.3" d="M84.8799 25.2324L88.8306 24.6067L89.4564 28.5574L84.8799 25.2324Z" fill="#A08868"/>
<path d="M90.8468 27.0317L31.9905 31.1473C31.1641 31.2051 30.541 31.9219 30.5988 32.7483L35.5515 103.575C35.6093 104.402 36.3261 105.025 37.1525 104.967L96.0087 100.851C96.8352 100.794 97.4582 100.077 97.4005 99.2504L92.4477 28.4234C92.39 27.597 91.6732 26.9739 90.8468 27.0317Z" fill="url(#paint1_linear_66_37)"/>
<path d="M90.8468 27.0317L31.9905 31.1473C31.1641 31.2051 30.541 31.9219 30.5988 32.7483L35.5515 103.575C35.6093 104.402 36.3261 105.025 37.1525 104.967L96.0087 100.851C96.8352 100.794 97.4582 100.077 97.4005 99.2504L92.4477 28.4234C92.39 27.597 91.6732 26.9739 90.8468 27.0317Z" stroke="#AA9A7E" stroke-width="0.5"/>
<path opacity="0.3" d="M88.3525 27.207L92.3428 26.928L92.6218 30.9183L88.3525 27.207Z" fill="#957E5E"/>
<path d="M93.5 29H34.5C33.6716 29 33 29.6716 33 30.5V101.5C33 102.328 33.6716 103 34.5 103H93.5C94.3284 103 95 102.328 95 101.5V30.5C95 29.6716 94.3284 29 93.5 29Z" fill="url(#paint2_linear_66_37)"/>
<path d="M93.5 29H34.5C33.6716 29 33 29.6716 33 30.5V101.5C33 102.328 33.6716 103 34.5 103H93.5C94.3284 103 95 102.328 95 101.5V30.5C95 29.6716 94.3284 29 93.5 29Z" stroke="#9D8A6C" stroke-width="0.5"/>
<path opacity="0.3" d="M91 29H95V33L91 29Z" fill="#8A7252"/>
<path opacity="0.35" d="M41 41H83" stroke="#6B5D49" stroke-width="0.7" stroke-linecap="round"/>
<path opacity="0.35" d="M41 47H81" stroke="#6B5D49" stroke-width="0.7" stroke-linecap="round"/>
<path opacity="0.35" d="M41 53H85" stroke="#6B5D49" stroke-width="0.7" stroke-linecap="round"/>
<path opacity="0.35" d="M41 59H79" stroke="#6B5D49" stroke-width="0.7" stroke-linecap="round"/>
<path opacity="0.35" d="M41 65H83" stroke="#6B5D49" stroke-width="0.7" stroke-linecap="round"/>
<path d="M60.4443 91.7246H54.626V75.6494H60.4443V76.5195H57.3945V90.8457H60.4443V91.7246Z" fill="#2D5F3F"/>
<path d="M67.3145 89H60.0635V88.332C60.2393 88.3203 60.5176 88.291 60.8984 88.2441C61.2852 88.1973 61.5488 88.1504 61.6895 88.1035C61.8652 88.0449 62.0029 87.9453 62.1025 87.8047C62.2021 87.6641 62.252 87.4707 62.252 87.2246V81.6523H60.0283V80.8174H60.5117C61.0215 80.8174 61.4609 80.7617 61.8301 80.6504C62.2051 80.5391 62.5156 80.4043 62.7617 80.2461C63.0137 80.082 63.2188 79.9121 63.377 79.7363C63.541 79.5605 63.6699 79.4053 63.7637 79.2705H65.3105C65.293 79.6514 65.2754 80.0967 65.2578 80.6064C65.2402 81.1162 65.2314 81.5732 65.2314 81.9775V87.1279C65.2314 87.3389 65.2754 87.5234 65.3633 87.6816C65.457 87.834 65.5889 87.9512 65.7588 88.0332C65.9111 88.1035 66.166 88.168 66.5234 88.2266C66.8809 88.2852 67.1445 88.3203 67.3145 88.332V89Z" fill="#2D5F3F"/>
<path d="M73.4248 91.7246H67.6064V90.8457H70.6562V76.5195H67.6064V75.6494H73.4248V91.7246Z" fill="#2D5F3F"/>
<path opacity="0.15" d="M52 91.5C53.6569 91.5 55 90.8284 55 90C55 89.1716 53.6569 88.5 52 88.5C50.3431 88.5 49 89.1716 49 90C49 90.8284 50.3431 91.5 52 91.5Z" fill="#2D5F3F"/>
<path opacity="0.12" d="M78 69C79.1046 69 80 68.5523 80 68C80 67.4477 79.1046 67 78 67C76.8954 67 76 67.4477 76 68C76 68.5523 76.8954 69 78 69Z" fill="#2D5F3F"/>
</g>
<defs>
<linearGradient id="paint0_linear_66_37" x1="27.5938" y1="34.3047" x2="1185.21" y2="7343.2" gradientUnits="userSpaceOnUse">
<stop stop-color="#F4EAD9"/>
<stop offset="1" stop-color="#E0D2B8"/>
</linearGradient>
<linearGradient id="paint1_linear_66_37" x1="30.4941" y1="31.252" x2="546.692" y2="7413.23" gradientUnits="userSpaceOnUse">
<stop stop-color="#ECDCC5"/>
<stop offset="1" stop-color="#D5C4A8"/>
</linearGradient>
<linearGradient id="paint2_linear_66_37" x1="33" y1="29" x2="33" y2="7429" gradientUnits="userSpaceOnUse">
<stop stop-color="#E3D0B1"/>
<stop offset="1" stop-color="#CAB798"/>
</linearGradient>
<clipPath id="clip0_66_37">
<rect width="128" height="128" fill="white"/>
</clipPath>
</defs>
</svg>
