<svg width="64" height="64" viewBox="0 0 64 64" xmlns="http://www.w3.org/2000/svg">
  <!-- Left citation number -->
  <g>
    <circle cx="18" cy="32" r="12" fill="#4285f4"/>
    <text x="18" y="37" font-family="Arial, sans-serif" font-size="14" font-weight="bold" fill="white" text-anchor="middle">1</text>
  </g>

  <!-- Right source document -->
  <g transform="translate(36, 20)">
    <rect x="0" y="0" width="20" height="24" rx="2" fill="#34a853"/>
    <rect x="3" y="4" width="14" height="2" fill="white" opacity="0.9"/>
    <rect x="3" y="8" width="14" height="2" fill="white" opacity="0.9"/>
    <rect x="3" y="12" width="10" height="2" fill="white" opacity="0.9"/>
  </g>

  <!-- Connection chain links -->
  <g opacity="0.9">
    <!-- Left link -->
    <path d="M 26 28 Q 28 28, 30 30 L 30 34 Q 28 36, 26 36 Q 24 36, 24 34 L 24 30 Q 24 28, 26 28 Z"
          fill="none" stroke="#666" stroke-width="2.5"/>

    <!-- Middle link -->
    <path d="M 32 28 Q 34 28, 36 30 L 36 34 Q 34 36, 32 36 Q 30 36, 30 34 L 30 30 Q 30 28, 32 28 Z"
          fill="none" stroke="#666" stroke-width="2.5"/>

    <!-- Right link -->
    <path d="M 38 28 Q 40 28, 42 30 L 42 34 Q 40 36, 38 36 Q 36 36, 36 34 L 36 30 Q 36 28, 38 28 Z"
          fill="none" stroke="#666" stroke-width="2.5"/>
  </g>

  <!-- Arrow indicators -->
  <path d="M 26 32 L 30 32" stroke="#4285f4" stroke-width="2" marker-end="url(#arrowhead)"/>
  <defs>
    <marker id="arrowhead" markerWidth="10" markerHeight="10" refX="8" refY="3" orient="auto">
      <polygon points="0 0, 6 3, 0 6" fill="#4285f4"/>
    </marker>
  </defs>
</svg>
